<?xml version="1.0" encoding="utf-8"?>
<!-- Generator: Adobe Illustrator 25.2.0, SVG Export Plug-In . SVG Version: 6.00 Build 0)  -->
<svg version="1.1" id="Layer_1" xmlns="http://www.w3.org/2000/svg" xmlns:xlink="http://www.w3.org/1999/xlink" x="0px" y="0px"
	 viewBox="0 0 512 140.2" style="enable-background:new 0 0 512 140.2;" xml:space="preserve">
<style type="text/css">
	.st0{fill:#5C5DA7;}
	.st1{fill:#B98C55;}
</style>
<path class="st0" d="M50.3,36.4v21.3h3.4c5.2,0,9.4-0.3,12.7-1c3.3-0.7,6.1-1.8,8.4-3.5c2.3-1.6,3.8-3.8,4.5-6.6h3v26.1h-3
	c-1.1-4.9-4.1-8.2-9-9.7c-4.9-1.6-10.4-2.4-16.6-2.4h-3.4v15.9c0,2.7,0.3,4.3,1,5s2,1.2,3.9,1.7c1.9,0.5,4.5,0.7,7.8,0.7h3.9v1.4
	H5.5v-1.4h3.9c3.4,0,6.1-0.3,8.2-0.8c1.5-0.4,2.7-1,3.5-1.8c0.6-0.6,1-2.2,1-4.8V42.3c0-2.7-0.3-4.3-1-5c-0.6-0.7-1.9-1.2-3.9-1.7
	c-1.9-0.5-4.5-0.7-7.8-0.7H5.5v-1.4h99v14.9H101c-0.8-3.5-2.9-6.1-6.2-7.8c-3.3-1.7-8.1-2.9-14.4-3.6c-3.5-0.4-9.9-0.6-19.2-0.6
	H50.3z"/>
<path class="st0" d="M178.3,32.7c18.7-0.3,33.9,2.1,45.6,7.2s17.5,11.5,17.5,19.2c0,6.6-4.4,12.4-13.1,17.4
	c-11.5,6.6-27.8,10-48.9,10c-21.1,0-37.4-3.2-49-9.5c-9.1-5-13.7-10.9-13.7-17.8c0-7.7,5.9-14.1,17.8-19.3
	C146.4,34.8,161,32.3,178.3,32.7z M179.3,35.1c-10.7,0-18.9,2.4-24.5,7.3c-4.6,4-6.8,9.7-6.8,17.1c0,8.9,3.5,15.4,10.6,19.6
	c4.9,3,11.8,4.4,20.6,4.4c5.9,0,10.9-0.6,14.9-1.9c5.1-1.6,9-4.2,11.9-7.8c2.8-3.6,4.2-8.3,4.2-14c0-6.9-1.4-12-4.3-15.4
	c-2.9-3.4-6.6-5.8-11-7.2C190.3,35.8,185.1,35.1,179.3,35.1z"/>
<path class="st0" d="M295.6,61.8v14.4c0,2.8,0.4,4.6,1.2,5.3c0.8,0.7,2.2,1.3,4.2,1.7c2,0.4,5.6,0.7,10.9,0.7v1.4h-59.6v-1.4
	c5.4,0,9.1-0.2,11-0.7c1.9-0.4,3.3-1,4.1-1.7c0.8-0.7,1.2-2.5,1.2-5.3V42.5c0-2.8-0.4-4.6-1.2-5.3c-0.8-0.7-2.2-1.3-4.1-1.7
	c-2-0.4-5.6-0.7-11-0.7v-1.4h51.1c16.8,0,28.9,1.3,36.3,4c7.3,2.7,11,6,11,10c0,3.4-2.4,6.3-7.1,8.6c-4.7,2.4-11.3,4-19.6,4.9
	C318.3,61.5,308.9,61.8,295.6,61.8z M295.6,36.4v22.4c1.9,0.1,3.3,0.1,4.3,0.1c7,0,12.5-0.9,16.3-2.8s5.7-4.7,5.7-8.6
	c0-3.9-1.9-6.7-5.7-8.5s-9.5-2.7-17-2.7H295.6z"/>
<path class="st0" d="M498.2,32.2l1,17.3h-3.5c-1.7-4.3-5.8-7.8-12.3-10.5c-6.5-2.6-13.6-4-21.2-4c-5.9,0-10.5,0.7-14,2.1
	c-3.4,1.4-5.1,3-5.1,4.8c0,1.1,0.6,2.2,1.8,3.1c1.7,1.2,4.4,2.4,8,3.6c2.7,0.8,9,2.3,18.8,4.5c13.7,3,23,5.8,27.8,8.5
	c4.7,2.7,7.1,5.7,7.1,9.1c0,4.3-3.8,8.1-11.5,11.2c-7.6,3.1-17.4,4.7-29.1,4.7c-3.7,0-7.2-0.2-10.5-0.5c-3.3-0.3-7.4-1-12.4-1.9
	c-2.8-0.5-5-0.8-6.8-0.8c-1.5,0-3.1,0.3-4.8,0.8c-1.7,0.5-3,1.3-4.1,2.3h-3.2V66.9h3.2c2.5,5.5,7.4,9.7,14.7,12.6
	c7.2,2.9,15,4.3,23.4,4.3c6.5,0,11.6-0.8,15.4-2.3c3.8-1.6,5.8-3.4,5.8-5.4c0-1.2-0.7-2.4-2.2-3.6c-1.5-1.1-3.7-2.2-6.7-3.3
	c-3-1-8.3-2.4-15.9-4c-10.7-2.3-18.3-4.3-23-5.9s-8.3-3.5-10.8-5.5s-3.8-4.2-3.8-6.7c0-4.1,3.4-7.7,10.3-10.6
	c6.9-2.9,15.5-4.4,26-4.4c3.8,0,7.5,0.2,11.1,0.6c2.7,0.3,6,0.9,9.9,1.7s6.6,1.2,8.2,1.2c1.5,0,2.7-0.2,3.5-0.6
	c0.9-0.4,1.7-1.4,2.4-2.9H498.2z"/>
<path class="st0" d="M396.4,51.8c2.2-6,3.3-10.1,3.3-12.3c0-2.1-1-3.9-3.1-5.2c-2.1-1.4-4.7-2.1-7.8-2.1c-3.2,0-5.8,0.7-7.8,2
	c-2,1.4-3,3.2-3,5.4c0,2.5,1,6.5,3.1,12.2l0.4,1.2c0.4,1.2,1.2,1.9,2.1,1.9h10.3c0.9,0,1.7-0.7,2.1-1.9L396.4,51.8z"/>
<g>
	<path class="st0" d="M472.3,6.4l0.1,2.9h-0.3c-0.1-0.5-0.2-0.9-0.3-1.1c-0.2-0.3-0.4-0.6-0.7-0.8c-0.3-0.2-0.7-0.2-1.2-0.2h-1.7
		v9.3c0,0.8,0.1,1.2,0.2,1.4c0.2,0.3,0.6,0.4,1.1,0.4h0.4v0.3h-5.2v-0.3h0.4c0.5,0,0.9-0.2,1.1-0.5c0.1-0.2,0.2-0.6,0.2-1.3V7.2H465
		c-0.6,0-1,0-1.2,0.1c-0.3,0.1-0.6,0.3-0.8,0.7c-0.2,0.3-0.4,0.8-0.4,1.3h-0.3l0.1-2.9H472.3z"/>
	<path class="st0" d="M482.7,18.6L478,8.3v8.2c0,0.8,0.1,1.2,0.2,1.4c0.2,0.3,0.6,0.4,1.1,0.4h0.4v0.3h-4.2v-0.3h0.4
		c0.5,0,0.9-0.2,1.1-0.5c0.1-0.2,0.2-0.6,0.2-1.3v-8c0-0.5-0.1-0.9-0.2-1.2c-0.1-0.2-0.2-0.3-0.5-0.4c-0.2-0.1-0.6-0.2-1.1-0.2V6.4
		h3.5l4.4,9.6l4.4-9.6h3.5v0.3h-0.4c-0.5,0-0.9,0.2-1.1,0.5c-0.1,0.2-0.2,0.6-0.2,1.3v8c0,0.8,0.1,1.2,0.3,1.4
		c0.2,0.3,0.6,0.4,1.1,0.4h0.4v0.3H486v-0.3h0.4c0.5,0,0.9-0.2,1.1-0.5c0.1-0.2,0.2-0.6,0.2-1.3V8.3L483,18.6H482.7z"/>
</g>
<g>
	<path class="st1" d="M29.6,95.8v6.5h-0.7c-0.4-1.5-0.9-2.6-1.4-3.2s-1.2-1.2-2.1-1.6c-0.5-0.2-1.4-0.3-2.6-0.3h-2v18.4
		c0,1.2,0.1,2,0.2,2.3c0.2,0.3,0.4,0.6,0.9,0.8s1,0.3,1.8,0.3h0.9v0.7h-14V119h0.9c0.8,0,1.4-0.1,1.9-0.4c0.3-0.2,0.6-0.4,0.8-0.8
		c0.1-0.3,0.2-1,0.2-2.2V97.2h-1.9c-1.8,0-3.1,0.3-3.9,1c-1.1,1-1.9,2.3-2.2,4.1H5.5v-6.5H29.6z"/>
	<path class="st1" d="M49.8,112.9h-9.5l-1.1,2.3c-0.4,0.8-0.6,1.4-0.6,1.9c0,0.7,0.3,1.2,0.9,1.5c0.4,0.2,1.2,0.3,2.6,0.4v0.7h-8.9
		V119c1-0.1,1.8-0.5,2.4-1.1c0.6-0.6,1.4-1.8,2.3-3.6l9.6-19h0.4l9.7,19.6c0.9,1.9,1.7,3,2.3,3.5c0.4,0.4,1.1,0.6,1.9,0.6v0.7h-13
		V119h0.5c1,0,1.8-0.1,2.2-0.4c0.3-0.2,0.4-0.5,0.4-0.8c0-0.2,0-0.4-0.1-0.7c0-0.1-0.2-0.5-0.6-1.3L49.8,112.9z M49.1,111.6l-4-8.2
		l-4.1,8.2H49.1z"/>
	<path class="st1" d="M81.8,119v0.7h-14V119h0.9c0.8,0,1.4-0.1,1.9-0.4c0.3-0.2,0.6-0.4,0.8-0.8c0.1-0.3,0.2-1,0.2-2.2V99.9
		c0-1.2-0.1-2-0.2-2.3c-0.1-0.3-0.4-0.6-0.9-0.8s-1-0.3-1.8-0.3h-0.9v-0.7h14v0.7H81c-0.8,0-1.4,0.1-1.9,0.4
		c-0.3,0.2-0.6,0.4-0.8,0.8c-0.1,0.3-0.2,1-0.2,2.2v15.7c0,1.2,0.1,2,0.2,2.3s0.4,0.6,0.9,0.8c0.4,0.2,1,0.3,1.8,0.3H81.8z"/>
	<path class="st1" d="M113.2,111.3l-1,8.4H88.4V119h0.9c0.8,0,1.4-0.1,1.9-0.4c0.3-0.2,0.6-0.4,0.8-0.8c0.1-0.3,0.2-1,0.2-2.2V99.9
		c0-1.2-0.1-2-0.2-2.3c-0.1-0.3-0.4-0.6-0.9-0.8s-1-0.3-1.8-0.3h-0.9v-0.7h14.3v0.7h-1.2c-0.8,0-1.4,0.1-1.9,0.4
		c-0.3,0.2-0.6,0.4-0.8,0.8c-0.1,0.3-0.2,1-0.2,2.2v15.2c0,1.2,0.1,2,0.2,2.3c0.2,0.3,0.5,0.6,0.9,0.7c0.3,0.1,1.1,0.2,2.4,0.2h2.2
		c1.4,0,2.6-0.2,3.6-0.7c0.9-0.4,1.8-1.1,2.5-2.1s1.3-2.4,2-4.3H113.2z"/>
	<path class="st1" d="M135.1,95.5c4.3-0.1,7.7,1,10.4,3.3c2.7,2.4,4,5.3,4,8.8c0,3-1,5.7-3,8c-2.6,3-6.4,4.6-11.2,4.6
		c-4.8,0-8.5-1.5-11.2-4.4c-2.1-2.3-3.1-5-3.1-8.2c0-3.5,1.4-6.5,4.1-8.9C127.8,96.5,131.2,95.4,135.1,95.5z M135.3,96.6
		c-2.5,0-4.3,1.1-5.6,3.3c-1,1.8-1.6,4.5-1.6,7.9c0,4.1,0.8,7.1,2.4,9c1.1,1.4,2.7,2,4.7,2c1.4,0,2.5-0.3,3.4-0.9
		c1.2-0.8,2.1-1.9,2.7-3.6c0.6-1.6,1-3.8,1-6.4c0-3.2-0.3-5.5-1-7.1c-0.7-1.6-1.5-2.7-2.5-3.3C137.9,96.9,136.7,96.6,135.3,96.6z"/>
	<path class="st1" d="M166.6,108.8v6.7c0,1.3,0.1,2.1,0.3,2.4c0.2,0.3,0.5,0.6,0.9,0.8s1.3,0.3,2.5,0.3v0.7h-13.7V119
		c1.2,0,2.1-0.1,2.5-0.3s0.8-0.5,0.9-0.8s0.3-1.1,0.3-2.4V100c0-1.3-0.1-2.1-0.3-2.4s-0.5-0.6-0.9-0.8s-1.3-0.3-2.5-0.3v-0.7H169
		c3.2,0,5.6,0.2,7.1,0.6c1.5,0.4,2.7,1.1,3.7,2.2c0.9,1.1,1.4,2.3,1.4,3.8c0,1.8-0.7,3.2-2.1,4.4c-0.9,0.7-2.2,1.3-3.8,1.6l6.4,8.1
		c0.8,1,1.4,1.7,1.8,2c0.5,0.4,1.2,0.6,1.9,0.6v0.7H177l-8.6-10.9H166.6z M166.6,97.1v10.4h1.1c1.8,0,3.2-0.1,4.1-0.4
		s1.6-0.8,2.1-1.6c0.5-0.8,0.8-1.8,0.8-3c0-1.8-0.5-3.2-1.4-4c-1-0.9-2.5-1.3-4.6-1.3H166.6z"/>
	<path class="st1" d="M193.6,107v-0.8c1.5-0.6,2.6-1.3,3.3-2.3c0.7-0.9,1-1.9,1-2.9c0-0.2,0-0.3-0.1-0.4c-0.1-0.1-0.2-0.1-0.3-0.1
		c-0.1,0-0.2,0-0.4,0.1c-0.4,0.2-0.9,0.3-1.4,0.3c-0.8,0-1.5-0.3-2-0.8s-0.9-1.2-0.9-1.9c0-0.8,0.3-1.5,1-2c0.7-0.6,1.5-0.9,2.4-0.9
		c1.1,0,2.1,0.4,2.9,1.2s1.2,1.8,1.2,3.2c0,1.7-0.6,3.2-1.7,4.5S195.9,106.4,193.6,107z"/>
	<path class="st1" d="M227.2,95.3l0.2,7.9h-0.8c-0.4-2-1.3-3.6-2.8-4.8c-1.5-1.2-3.1-1.8-4.9-1.8c-1.3,0-2.4,0.3-3.2,1
		c-0.8,0.6-1.2,1.4-1.2,2.2c0,0.5,0.1,1,0.4,1.4c0.4,0.6,1,1.1,1.8,1.6c0.6,0.4,2,1.1,4.3,2.1c3.1,1.4,5.2,2.7,6.3,3.9
		c1.1,1.2,1.6,2.6,1.6,4.2c0,2-0.9,3.7-2.6,5.1c-1.7,1.4-4,2.2-6.7,2.2c-0.8,0-1.6-0.1-2.4-0.2s-1.7-0.4-2.8-0.9
		c-0.6-0.2-1.2-0.4-1.6-0.4c-0.3,0-0.7,0.1-1.1,0.4s-0.7,0.6-0.9,1.1h-0.7v-9h0.7c0.6,2.5,1.7,4.5,3.3,5.8c1.7,1.3,3.4,2,5.3,2
		c1.5,0,2.7-0.4,3.5-1.1s1.3-1.5,1.3-2.5c0-0.6-0.2-1.1-0.5-1.6c-0.3-0.5-0.8-1-1.5-1.5c-0.7-0.5-1.9-1.1-3.6-1.9
		c-2.4-1.1-4.2-2-5.3-2.7s-1.9-1.6-2.5-2.5c-0.6-0.9-0.9-1.9-0.9-3.1c0-1.9,0.8-3.5,2.4-4.9c1.6-1.3,3.5-2,5.9-2
		c0.9,0,1.7,0.1,2.5,0.3c0.6,0.1,1.4,0.4,2.3,0.8s1.5,0.6,1.9,0.6c0.3,0,0.6-0.1,0.8-0.3s0.4-0.6,0.6-1.4H227.2z"/>
	<path class="st1" d="M273.6,105.4h8.2v0.7c-0.9,0.1-1.6,0.4-2.2,0.7c-0.5,0.4-1.2,1.2-2.1,2.6c-0.8,1.3-2,2.9-3.6,4.5
		c1.3,1.1,2.4,1.8,3.3,2.2c0.6,0.3,1.2,0.4,1.7,0.4c1,0,1.9-0.6,2.6-1.7l0.8,0.4c-1.1,1.9-2.2,3.2-3.5,4c-0.9,0.6-2,0.9-3.2,0.9
		c-1,0-2-0.2-2.9-0.6s-2.1-1.1-3.4-2.2c-1.6,1-3.2,1.7-4.6,2.1c-1.5,0.4-3,0.7-4.5,0.7c-2.5,0-4.5-0.6-6-1.8s-2.2-2.6-2.2-4.3
		c0-1.8,0.7-3.3,2.1-4.6c1.4-1.3,3.5-2.4,6.1-3.4c-0.3-0.8-0.6-1.5-0.8-2.2s-0.3-1.4-0.3-2.1c0-1.9,0.7-3.4,2.2-4.7
		c1.5-1.2,3.4-1.9,5.7-1.9c1.9,0,3.3,0.4,4.4,1.2s1.6,1.8,1.6,2.9c0,1.3-0.6,2.5-1.7,3.4s-2.9,1.8-5.3,2.6c1.5,2.3,3.7,4.8,6.5,7.5
		c1.9-1.9,2.9-3.6,2.9-5c0-0.5-0.2-0.9-0.6-1.3s-0.9-0.6-1.7-0.6V105.4z M261,107.3c-1.1,0.4-1.8,0.8-2.2,1.3
		c-0.6,0.7-0.9,1.4-0.9,2.2c0,1.1,0.4,2.2,1.1,3.3c0.7,1.1,1.6,1.9,2.6,2.5s2,0.9,3,0.9c0.5,0,1.1-0.1,1.7-0.3s1.3-0.5,2-0.9
		C265.1,113.4,262.7,110.4,261,107.3z M265.8,104.4c1.4-0.5,2.3-0.9,2.8-1.5c0.5-0.5,0.7-1.2,0.7-1.9c0-1.3-0.4-2.4-1.2-3.3
		c-0.5-0.6-1.1-0.9-1.9-0.9c-0.6,0-1.1,0.2-1.6,0.7s-0.7,1-0.7,1.8c0,0.6,0.1,1.2,0.3,1.8C264.5,101.7,265,102.8,265.8,104.4z"/>
	<path class="st1" d="M315.3,97.2v9.8h0.8c1.2,0,2.2-0.2,2.9-0.5s1.4-0.9,1.9-1.6s0.9-1.8,1-3h0.7v12h-0.7c-0.2-2.3-0.9-3.8-2-4.5
		c-1.1-0.7-2.4-1.1-3.8-1.1h-0.8v7.3c0,1.2,0.1,2,0.2,2.3s0.4,0.6,0.9,0.8s1,0.3,1.8,0.3h0.9v0.7h-14V119h0.9c0.8,0,1.4-0.1,1.9-0.4
		c0.3-0.2,0.6-0.4,0.8-0.8c0.1-0.3,0.2-1,0.2-2.2V99.9c0-1.2-0.1-2-0.2-2.3c-0.1-0.3-0.4-0.6-0.9-0.8s-1-0.3-1.8-0.3H305v-0.7h22.6
		v6.8h-0.8c-0.2-1.6-0.7-2.8-1.4-3.6s-1.9-1.3-3.3-1.6c-0.8-0.2-2.3-0.3-4.4-0.3H315.3z"/>
	<path class="st1" d="M347.5,112.9h-9.5l-1.1,2.3c-0.4,0.8-0.6,1.4-0.6,1.9c0,0.7,0.3,1.2,0.9,1.5c0.4,0.2,1.2,0.3,2.6,0.4v0.7H331
		V119c1-0.1,1.8-0.5,2.4-1.1c0.6-0.6,1.4-1.8,2.3-3.6l9.6-19h0.4l9.7,19.6c0.9,1.9,1.7,3,2.3,3.5c0.4,0.4,1.1,0.6,1.9,0.6v0.7h-13
		V119h0.5c1,0,1.8-0.1,2.2-0.4c0.3-0.2,0.4-0.5,0.4-0.8c0-0.2,0-0.4-0.1-0.7c0-0.1-0.2-0.5-0.6-1.3L347.5,112.9z M346.9,111.6
		l-4-8.2l-4.1,8.2H346.9z"/>
	<path class="st1" d="M382.8,107c2.5,0.5,4.3,1.2,5.4,1.9c1.5,1.1,2.2,2.5,2.2,4.1c0,1.8-0.8,3.3-2.4,4.4c-2,1.4-4.9,2.1-8.7,2.1
		h-13.6V119c1.2,0,2.1-0.1,2.5-0.3s0.8-0.5,0.9-0.8c0.2-0.3,0.3-1.1,0.3-2.4V100c0-1.3-0.1-2.1-0.3-2.4c-0.2-0.3-0.5-0.6-0.9-0.8
		s-1.3-0.3-2.5-0.3v-0.7h12.8c3.1,0,5.2,0.2,6.5,0.7c1.3,0.5,2.3,1.2,3,2.2c0.7,1,1.1,2,1.1,3.1c0,1.1-0.5,2.2-1.4,3.1
		S385.2,106.5,382.8,107z M375.6,107.9v7.6l0,0.9c0,0.6,0.2,1.1,0.5,1.4s0.9,0.5,1.6,0.5c1.1,0,2-0.2,2.9-0.6s1.6-1,2-1.8
		c0.5-0.8,0.7-1.7,0.7-2.6c0-1.1-0.3-2.1-0.9-3c-0.6-0.9-1.4-1.5-2.4-1.9S377.6,107.9,375.6,107.9z M375.6,106.6
		c1.9,0,3.3-0.2,4.1-0.6c0.9-0.4,1.6-0.9,2-1.6c0.5-0.7,0.7-1.5,0.7-2.6c0-1.1-0.2-1.9-0.7-2.6s-1.1-1.2-2-1.5
		c-0.9-0.4-2.3-0.5-4.2-0.5V106.6z"/>
	<path class="st1" d="M407.4,108.8v6.7c0,1.3,0.1,2.1,0.3,2.4c0.2,0.3,0.5,0.6,0.9,0.8s1.3,0.3,2.5,0.3v0.7h-13.7V119
		c1.2,0,2.1-0.1,2.5-0.3s0.8-0.5,0.9-0.8s0.3-1.1,0.3-2.4V100c0-1.3-0.1-2.1-0.3-2.4s-0.5-0.6-0.9-0.8s-1.3-0.3-2.5-0.3v-0.7h12.5
		c3.2,0,5.6,0.2,7.1,0.6c1.5,0.4,2.7,1.1,3.7,2.2c0.9,1.1,1.4,2.3,1.4,3.8c0,1.8-0.7,3.2-2.1,4.4c-0.9,0.7-2.2,1.3-3.8,1.6l6.4,8.1
		c0.8,1,1.4,1.7,1.8,2c0.5,0.4,1.2,0.6,1.9,0.6v0.7h-8.4l-8.6-10.9H407.4z M407.4,97.1v10.4h1.1c1.8,0,3.2-0.1,4.1-0.4
		s1.6-0.8,2.1-1.6c0.5-0.8,0.8-1.8,0.8-3c0-1.8-0.5-3.2-1.4-4c-1-0.9-2.5-1.3-4.6-1.3H407.4z"/>
	<path class="st1" d="M445.5,119v0.7h-14V119h0.9c0.8,0,1.4-0.1,1.9-0.4c0.3-0.2,0.6-0.4,0.8-0.8c0.1-0.3,0.2-1,0.2-2.2V99.9
		c0-1.2-0.1-2-0.2-2.3c-0.1-0.3-0.4-0.6-0.9-0.8s-1-0.3-1.8-0.3h-0.9v-0.7h14v0.7h-0.9c-0.8,0-1.4,0.1-1.9,0.4
		c-0.3,0.2-0.6,0.4-0.8,0.8c-0.1,0.3-0.2,1-0.2,2.2v15.7c0,1.2,0.1,2,0.2,2.3s0.4,0.6,0.9,0.8c0.4,0.2,1,0.3,1.8,0.3H445.5z"/>
	<path class="st1" d="M478.4,95.3v8.3h-0.8c-0.6-2.2-1.7-3.8-3.2-5c-1.6-1.1-3.4-1.7-5.4-1.7c-1.7,0-3.2,0.4-4.6,1.3
		c-1.4,0.9-2.4,2-3.1,3.4c-0.8,1.8-1.2,3.7-1.2,5.9c0,2.1,0.3,4.1,0.9,5.8c0.6,1.8,1.6,3.1,2.8,4c1.3,0.9,3,1.3,5,1.3
		c1.7,0,3.2-0.3,4.6-1c1.4-0.7,2.9-1.8,4.4-3.4v2.1c-1.5,1.4-3.1,2.4-4.7,3s-3.5,0.9-5.7,0.9c-2.9,0-5.4-0.5-7.6-1.5
		c-2.2-1-3.9-2.5-5.1-4.4c-1.2-1.9-1.8-3.9-1.8-6.1c0-2.3,0.7-4.4,2-6.5c1.3-2,3.1-3.6,5.4-4.7s4.7-1.7,7.2-1.7c1.9,0,3.9,0.4,6,1.1
		c1.2,0.4,2,0.6,2.3,0.6c0.4,0,0.8-0.1,1.1-0.4s0.5-0.7,0.6-1.3H478.4z"/>
	<path class="st1" d="M504.4,95.3l0.2,7.9h-0.8c-0.4-2-1.3-3.6-2.8-4.8c-1.5-1.2-3.1-1.8-4.9-1.8c-1.3,0-2.4,0.3-3.2,1
		c-0.8,0.6-1.2,1.4-1.2,2.2c0,0.5,0.1,1,0.4,1.4c0.4,0.6,1,1.1,1.8,1.6c0.6,0.4,2,1.1,4.3,2.1c3.1,1.4,5.2,2.7,6.3,3.9
		c1.1,1.2,1.6,2.6,1.6,4.2c0,2-0.9,3.7-2.6,5.1c-1.7,1.4-4,2.2-6.7,2.2c-0.8,0-1.6-0.1-2.4-0.2s-1.7-0.4-2.8-0.9
		c-0.6-0.2-1.2-0.4-1.6-0.4c-0.3,0-0.7,0.1-1.1,0.4s-0.7,0.6-0.9,1.1h-0.7v-9h0.7c0.6,2.5,1.7,4.5,3.3,5.8c1.7,1.3,3.4,2,5.3,2
		c1.5,0,2.7-0.4,3.5-1.1s1.3-1.5,1.3-2.5c0-0.6-0.2-1.1-0.5-1.6c-0.3-0.5-0.8-1-1.5-1.5c-0.7-0.5-1.9-1.1-3.6-1.9
		c-2.4-1.1-4.2-2-5.3-2.7s-1.9-1.6-2.5-2.5c-0.6-0.9-0.9-1.9-0.9-3.1c0-1.9,0.8-3.5,2.4-4.9c1.6-1.3,3.5-2,5.9-2
		c0.9,0,1.7,0.1,2.5,0.3c0.6,0.1,1.4,0.4,2.3,0.8s1.5,0.6,1.9,0.6c0.3,0,0.6-0.1,0.8-0.3s0.4-0.6,0.6-1.4H504.4z"/>
</g>
</svg>
