<?xml version="1.0" encoding="utf-8"?>
<!-- Generator: Adobe Illustrator 25.2.0, SVG Export Plug-In . SVG Version: 6.00 Build 0)  -->
<svg version="1.1" id="Layer_1" xmlns="http://www.w3.org/2000/svg" xmlns:xlink="http://www.w3.org/1999/xlink" x="0px" y="0px"
	 viewBox="0 0 512 140.2" style="enable-background:new 0 0 512 140.2;" xml:space="preserve">
<style type="text/css">
	.st0{fill:#5C5DA7;}
	.st1{fill:#B98C55;}
</style>
<g>
	<path class="st0" d="M50.3,37.5v21.3h3.4c5.2,0,9.4-0.3,12.7-1c3.3-0.7,6.1-1.8,8.4-3.5c2.3-1.6,3.8-3.8,4.5-6.6h3v26.1h-3
		c-1.1-4.9-4.1-8.2-9-9.7c-4.9-1.6-10.4-2.4-16.6-2.4h-3.4v15.9c0,2.7,0.3,4.3,1,5s2,1.2,3.9,1.7c1.9,0.5,4.5,0.7,7.8,0.7h3.9v1.4
		H5.5V85h3.9c3.4,0,6.1-0.3,8.2-0.8c1.5-0.4,2.7-1,3.5-1.8c0.6-0.6,1-2.2,1-4.8V43.4c0-2.7-0.3-4.3-1-5c-0.6-0.7-1.9-1.2-3.9-1.7
		c-1.9-0.5-4.5-0.7-7.8-0.7H5.5v-1.4h99v14.9H101c-0.8-3.5-2.9-6.1-6.2-7.8c-3.3-1.7-8.1-2.9-14.4-3.6c-3.5-0.4-9.9-0.6-19.2-0.6
		H50.3z"/>
	<path class="st0" d="M178.3,33.8c18.7-0.3,33.9,2.1,45.6,7.2s17.5,11.5,17.5,19.2c0,6.6-4.4,12.4-13.1,17.4
		c-11.5,6.6-27.8,10-48.9,10c-21.1,0-37.4-3.2-49-9.5c-9.1-5-13.7-10.9-13.7-17.8c0-7.7,5.9-14.1,17.8-19.3
		C146.4,35.9,161,33.5,178.3,33.8z M179.3,36.3c-10.7,0-18.9,2.4-24.5,7.3c-4.6,4-6.8,9.7-6.8,17.1c0,8.9,3.5,15.4,10.6,19.6
		c4.9,3,11.8,4.4,20.6,4.4c5.9,0,10.9-0.6,14.9-1.9c5.1-1.6,9-4.2,11.9-7.8c2.8-3.6,4.2-8.3,4.2-14c0-6.9-1.4-12-4.3-15.4
		c-2.9-3.4-6.6-5.8-11-7.2C190.3,37,185.1,36.3,179.3,36.3z"/>
	<path class="st0" d="M295.6,62.9v14.4c0,2.8,0.4,4.6,1.2,5.3c0.8,0.7,2.2,1.3,4.2,1.7c2,0.4,5.6,0.7,10.9,0.7v1.4h-59.6V85
		c5.4,0,9.1-0.2,11-0.7c1.9-0.4,3.3-1,4.1-1.7c0.8-0.7,1.2-2.5,1.2-5.3V43.7c0-2.8-0.4-4.6-1.2-5.3c-0.8-0.7-2.2-1.3-4.1-1.7
		c-2-0.4-5.6-0.7-11-0.7v-1.4h51.1c16.8,0,28.9,1.3,36.3,4c7.3,2.7,11,6,11,10c0,3.4-2.4,6.3-7.1,8.6c-4.7,2.4-11.3,4-19.6,4.9
		C318.3,62.6,308.9,62.9,295.6,62.9z M295.6,37.5V60c1.9,0.1,3.3,0.1,4.3,0.1c7,0,12.5-0.9,16.3-2.8s5.7-4.7,5.7-8.6
		c0-3.9-1.9-6.7-5.7-8.5s-9.5-2.7-17-2.7H295.6z"/>
	<path class="st0" d="M498.2,33.4l1,17.3h-3.5c-1.7-4.3-5.8-7.8-12.3-10.5c-6.5-2.6-13.6-4-21.2-4c-5.9,0-10.5,0.7-14,2.1
		c-3.4,1.4-5.1,3-5.1,4.8c0,1.1,0.6,2.2,1.8,3.1c1.7,1.2,4.4,2.4,8,3.6c2.7,0.8,9,2.3,18.8,4.5c13.7,3,23,5.8,27.8,8.5
		c4.7,2.7,7.1,5.7,7.1,9.1c0,4.3-3.8,8.1-11.5,11.2c-7.6,3.1-17.4,4.7-29.1,4.7c-3.7,0-7.2-0.2-10.5-0.5c-3.3-0.3-7.4-1-12.4-1.9
		c-2.8-0.5-5-0.8-6.8-0.8c-1.5,0-3.1,0.3-4.8,0.8c-1.7,0.5-3,1.3-4.1,2.3h-3.2V68h3.2c2.5,5.5,7.4,9.7,14.7,12.6
		c7.2,2.9,15,4.3,23.4,4.3c6.5,0,11.6-0.8,15.4-2.3c3.8-1.6,5.8-3.4,5.8-5.4c0-1.2-0.7-2.4-2.2-3.6c-1.5-1.1-3.7-2.2-6.7-3.3
		c-3-1-8.3-2.4-15.9-4c-10.7-2.3-18.3-4.3-23-5.9S430.5,57,428,55s-3.8-4.2-3.8-6.7c0-4.1,3.4-7.7,10.3-10.6
		c6.9-2.9,15.5-4.4,26-4.4c3.8,0,7.5,0.2,11.1,0.6c2.7,0.3,6,0.9,9.9,1.7s6.6,1.2,8.2,1.2c1.5,0,2.7-0.2,3.5-0.6
		c0.9-0.4,1.7-1.4,2.4-2.9H498.2z"/>
	<path class="st0" d="M396.4,53c2.2-6,3.3-10.1,3.3-12.3c0-2.1-1-3.9-3.1-5.2c-2.1-1.4-4.7-2.1-7.8-2.1c-3.2,0-5.8,0.7-7.8,2
		c-2,1.4-3,3.2-3,5.4c0,2.5,1,6.5,3.1,12.2l0.4,1.2c0.4,1.2,1.2,1.9,2.1,1.9h10.3c0.9,0,1.7-0.7,2.1-1.9L396.4,53z"/>
	<g>
		<path class="st1" d="M27.4,105.5l0.3,6.2h-0.7c-0.1-1.1-0.3-1.9-0.6-2.3c-0.4-0.8-0.9-1.3-1.6-1.7c-0.7-0.4-1.5-0.5-2.6-0.5h-3.7
			v20.2c0,1.6,0.2,2.6,0.5,3c0.5,0.5,1.2,0.8,2.3,0.8h0.9v0.7H10.9v-0.7h0.9c1.1,0,1.9-0.3,2.4-1c0.3-0.4,0.4-1.4,0.4-2.9v-20.2
			h-3.2c-1.2,0-2.1,0.1-2.6,0.3c-0.7,0.2-1.3,0.7-1.7,1.4c-0.5,0.7-0.8,1.7-0.9,2.9H5.5l0.3-6.2H27.4z"/>
		<path class="st1" d="M48.4,123.1H38.2l-1.8,4.2c-0.4,1-0.7,1.8-0.7,2.3c0,0.4,0.2,0.8,0.6,1.1c0.4,0.3,1.2,0.5,2.5,0.6v0.7h-8.3
			v-0.7c1.1-0.2,1.8-0.4,2.1-0.8c0.7-0.6,1.4-1.9,2.2-3.8l9.3-21.8h0.7l9.2,22c0.7,1.8,1.4,2.9,2,3.4s1.4,0.8,2.5,0.9v0.7H48.1v-0.7
			c1-0.1,1.8-0.2,2.1-0.5c0.4-0.3,0.6-0.7,0.6-1.1c0-0.6-0.3-1.5-0.8-2.7L48.4,123.1z M47.9,121.7L43.4,111l-4.6,10.7H47.9z"/>
		<path class="st1" d="M90.6,132h-7l-8.9-12.4c-0.7,0-1.2,0-1.6,0c-0.2,0-0.3,0-0.5,0c-0.2,0-0.4,0-0.6,0v7.7c0,1.7,0.2,2.7,0.5,3.1
			c0.5,0.6,1.2,0.9,2.2,0.9h1v0.7H64.4v-0.7h1c1.1,0,1.9-0.4,2.4-1.1c0.3-0.4,0.4-1.4,0.4-2.9v-17.1c0-1.7-0.2-2.7-0.5-3.1
			c-0.5-0.6-1.3-0.9-2.3-0.9h-1v-0.7H74c2.8,0,4.9,0.2,6.2,0.6c1.3,0.4,2.5,1.2,3.4,2.3c0.9,1.1,1.4,2.4,1.4,3.9
			c0,1.6-0.5,3-1.6,4.2c-1.1,1.2-2.7,2-4.9,2.5l5.4,7.6c1.2,1.7,2.3,2.9,3.2,3.5c0.9,0.6,2.1,0.9,3.5,1.1V132z M71.9,118.4
			c0.2,0,0.5,0,0.6,0c0.2,0,0.3,0,0.4,0c2.5,0,4.4-0.5,5.7-1.6c1.3-1.1,1.9-2.5,1.9-4.2c0-1.7-0.5-3-1.5-4c-1-1-2.4-1.6-4.1-1.6
			c-0.8,0-1.8,0.1-3.1,0.4V118.4z"/>
		<path class="st1" d="M107.3,131.3v0.7H96v-0.7H97c1.1,0,1.9-0.3,2.4-1c0.3-0.4,0.5-1.4,0.5-3v-17.1c0-1.3-0.1-2.2-0.3-2.7
			c-0.1-0.3-0.4-0.6-0.8-0.8c-0.6-0.3-1.2-0.5-1.8-0.5H96v-0.7h11.3v0.7h-1c-1.1,0-1.9,0.3-2.4,1c-0.3,0.4-0.5,1.4-0.5,3v17.1
			c0,1.3,0.1,2.2,0.3,2.7c0.1,0.3,0.4,0.6,0.8,0.8c0.6,0.3,1.1,0.5,1.8,0.5H107.3z"/>
		<path class="st1" d="M135.9,124.7l0.6,0.1l-2.3,7.2h-20.4v-0.7h1c1.1,0,1.9-0.4,2.4-1.1c0.3-0.4,0.4-1.4,0.4-2.9v-17.1
			c0-1.7-0.2-2.7-0.5-3.1c-0.5-0.6-1.3-0.9-2.3-0.9h-1v-0.7h11.9v0.7c-1.4,0-2.4,0.1-2.9,0.4c-0.6,0.3-0.9,0.6-1.2,1
			c-0.2,0.4-0.3,1.4-0.3,3v16.6c0,1.1,0.1,1.8,0.3,2.2c0.2,0.3,0.4,0.5,0.7,0.6c0.3,0.1,1.3,0.2,3,0.2h1.9c2,0,3.4-0.1,4.3-0.4
			s1.6-0.8,2.2-1.6C134.5,127.5,135.2,126.3,135.9,124.7z"/>
		<path class="st1" d="M156.7,104.9c3.4,0,6.4,1.3,8.9,3.9s3.8,5.9,3.8,9.8c0,4-1.3,7.4-3.8,10c-2.5,2.7-5.6,4-9.2,4
			c-3.6,0-6.7-1.3-9.1-3.9c-2.5-2.6-3.7-5.9-3.7-10.1c0-4.2,1.4-7.6,4.3-10.3C150.3,106.1,153.3,104.9,156.7,104.9z M156.3,106.3
			c-2.4,0-4.2,0.9-5.7,2.6c-1.8,2.2-2.7,5.4-2.7,9.6c0,4.3,0.9,7.6,2.8,10c1.4,1.8,3.3,2.7,5.6,2.7c2.5,0,4.5-1,6.1-2.9
			c1.6-1.9,2.4-5,2.4-9.2c0-4.5-0.9-7.9-2.7-10.1C160.8,107.2,158.8,106.3,156.3,106.3z"/>
		<path class="st1" d="M202.5,132h-7l-8.9-12.4c-0.7,0-1.2,0-1.6,0c-0.2,0-0.3,0-0.5,0s-0.4,0-0.6,0v7.7c0,1.7,0.2,2.7,0.5,3.1
			c0.5,0.6,1.2,0.9,2.2,0.9h1v0.7h-11.3v-0.7h1c1.1,0,1.9-0.4,2.4-1.1c0.3-0.4,0.4-1.4,0.4-2.9v-17.1c0-1.7-0.2-2.7-0.5-3.1
			c-0.5-0.6-1.3-0.9-2.3-0.9h-1v-0.7h9.6c2.8,0,4.9,0.2,6.2,0.6c1.3,0.4,2.5,1.2,3.4,2.3c0.9,1.1,1.4,2.4,1.4,3.9
			c0,1.6-0.5,3-1.6,4.2c-1.1,1.2-2.7,2-4.9,2.5l5.4,7.6c1.2,1.7,2.3,2.9,3.2,3.5s2.1,0.9,3.5,1.1V132z M183.8,118.4
			c0.2,0,0.5,0,0.6,0c0.2,0,0.3,0,0.4,0c2.5,0,4.4-0.5,5.7-1.6c1.3-1.1,1.9-2.5,1.9-4.2c0-1.7-0.5-3-1.5-4s-2.4-1.6-4.1-1.6
			c-0.7,0-1.8,0.1-3.1,0.4V118.4z"/>
		<path class="st1" d="M211.6,115v-0.9c1.3-0.8,2.2-1.5,2.7-2.2c0.3-0.5,0.5-1.1,0.5-1.8c0-0.4-0.1-0.7-0.2-0.9
			c-0.2-0.2-0.3-0.3-0.5-0.3c-0.1,0-0.3,0-0.6,0.1c-0.3,0.1-0.6,0.2-0.8,0.2c-0.5,0-1-0.2-1.4-0.6c-0.4-0.4-0.6-0.9-0.6-1.5
			c0-0.7,0.2-1.2,0.6-1.5c0.5-0.5,1.2-0.7,1.9-0.7c0.9,0,1.6,0.4,2.3,1.1c0.7,0.7,1,1.7,1,2.7c0,1.5-0.6,2.9-1.7,4.2
			C214.1,113.8,213,114.5,211.6,115z"/>
		<path class="st1" d="M243.2,104.9v9.2h-0.7c-0.2-1.8-0.7-3.2-1.3-4.2c-0.6-1-1.5-1.9-2.6-2.5c-1.1-0.6-2.3-0.9-3.5-0.9
			c-1.3,0-2.5,0.4-3.3,1.2c-0.9,0.8-1.3,1.8-1.3,2.8c0,0.8,0.3,1.5,0.8,2.2c0.8,1,2.7,2.3,5.7,3.9c2.5,1.3,4.1,2.3,5,3.1
			c0.9,0.7,1.6,1.5,2.1,2.5c0.5,1,0.7,2,0.7,3c0,2-0.8,3.7-2.3,5.2c-1.5,1.5-3.5,2.2-6,2.2c-0.8,0-1.5-0.1-2.2-0.2
			c-0.4-0.1-1.2-0.3-2.5-0.7c-1.3-0.4-2.1-0.6-2.4-0.6c-0.3,0-0.6,0.1-0.8,0.3c-0.2,0.2-0.3,0.6-0.4,1.2h-0.7v-9.1h0.7
			c0.3,1.9,0.8,3.3,1.4,4.3c0.6,0.9,1.4,1.7,2.6,2.4c1.2,0.6,2.5,0.9,3.9,0.9c1.6,0,2.9-0.4,3.8-1.3c0.9-0.9,1.4-1.9,1.4-3
			c0-0.7-0.2-1.3-0.5-2c-0.4-0.7-0.9-1.3-1.7-1.9c-0.5-0.4-1.9-1.2-4.1-2.5c-2.3-1.3-3.9-2.3-4.8-3c-1-0.8-1.7-1.6-2.2-2.5
			c-0.5-0.9-0.7-1.9-0.7-3c0-1.9,0.7-3.5,2.2-4.9c1.4-1.4,3.3-2.1,5.5-2.1c1.4,0,2.9,0.3,4.4,1c0.7,0.3,1.2,0.5,1.5,0.5
			c0.3,0,0.6-0.1,0.8-0.3s0.4-0.6,0.5-1.2H243.2z"/>
		<path class="st1" d="M286.9,114.9h8.2v0.7c-1.1,0.1-2,0.3-2.5,0.8c-0.5,0.4-1.4,1.7-2.5,3.7c-1.1,2.1-2.4,4-3.8,5.8
			c1.2,1.4,2.2,2.3,3.1,2.8c0.9,0.5,1.8,0.8,2.7,0.8c0.9,0,1.7-0.2,2.3-0.7c0.6-0.5,1.1-1.2,1.3-2.2l0.7,0.5
			c-0.5,1.8-1.3,3.2-2.3,4.1c-1.1,0.9-2.3,1.3-3.7,1.3c-1.1,0-2.1-0.3-3.2-0.9c-1.1-0.6-2.3-1.6-3.6-2.9c-1.6,1.4-3.1,2.4-4.3,3
			c-1.3,0.6-2.7,0.8-4.1,0.8c-2.1,0-3.8-0.6-5.1-1.7c-1.3-1.1-1.9-2.5-1.9-4.1c0-1.6,0.6-3.1,1.7-4.7s3.2-3.2,6.4-4.9
			c-0.6-1.4-1-2.5-1.2-3.3c-0.2-0.9-0.3-1.7-0.3-2.5c0-2.2,0.8-3.9,2.4-5.1c1.3-0.9,2.7-1.4,4.3-1.4c1.5,0,2.8,0.5,3.8,1.4
			s1.5,2,1.5,3.4c0,1.4-0.5,2.6-1.4,3.6c-0.9,1-2.6,2.2-5,3.4c1.6,2.9,3.4,5.6,5.1,8.1c2.3-2.7,3.4-5,3.4-6.9c0-0.6-0.2-1.1-0.6-1.6
			c-0.3-0.4-0.7-0.6-1.2-0.6V114.9z M282.5,127.7c-1.7-2.3-2.9-4.1-3.6-5.1s-1.4-2.4-2.2-4c-1.6,0.9-2.7,1.9-3.5,3
			c-0.8,1.1-1.2,2.3-1.2,3.5c0,1.4,0.4,2.6,1.3,3.7c0.9,1.1,2.1,1.6,3.6,1.6c0.8,0,1.6-0.2,2.4-0.5S281.2,128.7,282.5,127.7z
			 M279.5,115.5c1.6-0.8,2.8-1.6,3.6-2.6c0.8-1,1.2-2.1,1.2-3.3c0-0.9-0.3-1.7-0.9-2.3c-0.6-0.6-1.3-0.9-2.1-0.9
			c-1.1,0-2,0.4-2.6,1.2c-0.6,0.8-0.9,1.6-0.9,2.3c0,0.6,0.1,1.4,0.3,2.1C278.4,112.8,278.8,113.9,279.5,115.5z"/>
		<path class="st1" d="M325.2,107v10.4h4.8c1.1,0,1.9-0.2,2.4-0.7c0.5-0.5,0.9-1.5,1-2.9h0.7v9h-0.7c0-1-0.1-1.8-0.4-2.3
			s-0.6-0.8-1-1.1c-0.4-0.2-1.1-0.4-2-0.4h-4.8v8.3c0,1.3,0.1,2.2,0.3,2.7c0.1,0.3,0.4,0.6,0.8,0.8c0.6,0.3,1.2,0.5,1.8,0.5h1v0.7
			h-11.3v-0.7h0.9c1.1,0,1.9-0.3,2.4-1c0.3-0.4,0.5-1.4,0.5-3v-17.1c0-1.3-0.1-2.2-0.3-2.7c-0.1-0.3-0.4-0.6-0.8-0.8
			c-0.6-0.3-1.2-0.5-1.8-0.5h-0.9v-0.7h19.6l0.3,5.8h-0.7c-0.3-1.2-0.7-2.1-1.2-2.7c-0.4-0.6-1-1-1.7-1.3c-0.7-0.3-1.7-0.4-3-0.4
			H325.2z"/>
		<path class="st1" d="M359.2,123.1H349l-1.8,4.2c-0.4,1-0.7,1.8-0.7,2.3c0,0.4,0.2,0.8,0.6,1.1c0.4,0.3,1.2,0.5,2.5,0.6v0.7h-8.3
			v-0.7c1.1-0.2,1.8-0.4,2.1-0.8c0.7-0.6,1.4-1.9,2.2-3.8l9.3-21.8h0.7l9.2,22c0.7,1.8,1.4,2.9,2,3.4c0.6,0.5,1.4,0.8,2.5,0.9v0.7
			h-10.4v-0.7c1-0.1,1.8-0.2,2.1-0.5c0.4-0.3,0.6-0.7,0.6-1.1c0-0.6-0.3-1.5-0.8-2.7L359.2,123.1z M358.7,121.7l-4.5-10.7l-4.6,10.7
			H358.7z"/>
		<path class="st1" d="M392.9,118.5c1.8,0.4,3.2,1,4.1,1.9c1.3,1.2,1.9,2.7,1.9,4.4c0,1.3-0.4,2.6-1.2,3.8c-0.8,1.2-2,2.1-3.4,2.6
			c-1.4,0.6-3.6,0.8-6.6,0.8h-12.4v-0.7h1c1.1,0,1.9-0.4,2.4-1.1c0.3-0.5,0.4-1.4,0.4-2.9v-17.1c0-1.6-0.2-2.7-0.6-3.1
			c-0.5-0.6-1.3-0.9-2.3-0.9h-1v-0.7h11.4c2.1,0,3.8,0.2,5.1,0.5c1.9,0.5,3.4,1.3,4.4,2.5c1,1.2,1.5,2.6,1.5,4.1
			c0,1.3-0.4,2.5-1.2,3.6C395.6,117.2,394.5,118,392.9,118.5z M382.7,117.4c0.5,0.1,1,0.2,1.6,0.2c0.6,0,1.3,0.1,2,0.1
			c1.9,0,3.3-0.2,4.3-0.6s1.7-1,2.2-1.9s0.8-1.8,0.8-2.8c0-1.5-0.6-2.9-1.9-4c-1.3-1.1-3.1-1.6-5.5-1.6c-1.3,0-2.5,0.1-3.5,0.4
			V117.4z M382.7,130.1c1.5,0.4,3,0.5,4.4,0.5c2.3,0,4.1-0.5,5.4-1.6c1.2-1.1,1.8-2.4,1.8-3.9c0-1-0.3-2-0.8-3
			c-0.6-1-1.5-1.7-2.7-2.2c-1.3-0.5-2.8-0.8-4.7-0.8c-0.8,0-1.5,0-2.1,0c-0.6,0-1,0.1-1.4,0.1V130.1z"/>
		<path class="st1" d="M432.7,132h-7l-8.9-12.4c-0.7,0-1.2,0-1.6,0c-0.2,0-0.3,0-0.5,0s-0.4,0-0.6,0v7.7c0,1.7,0.2,2.7,0.5,3.1
			c0.5,0.6,1.2,0.9,2.2,0.9h1v0.7h-11.3v-0.7h1c1.1,0,1.9-0.4,2.4-1.1c0.3-0.4,0.4-1.4,0.4-2.9v-17.1c0-1.7-0.2-2.7-0.5-3.1
			c-0.5-0.6-1.3-0.9-2.3-0.9h-1v-0.7h9.6c2.8,0,4.9,0.2,6.2,0.6c1.3,0.4,2.5,1.2,3.4,2.3c0.9,1.1,1.4,2.4,1.4,3.9
			c0,1.6-0.5,3-1.6,4.2c-1.1,1.2-2.7,2-4.9,2.5l5.4,7.6c1.2,1.7,2.3,2.9,3.2,3.5s2.1,0.9,3.5,1.1V132z M414,118.4c0.2,0,0.5,0,0.6,0
			c0.2,0,0.3,0,0.4,0c2.5,0,4.4-0.5,5.7-1.6c1.3-1.1,1.9-2.5,1.9-4.2c0-1.7-0.5-3-1.5-4s-2.4-1.6-4.1-1.6c-0.8,0-1.8,0.1-3.1,0.4
			V118.4z"/>
		<path class="st1" d="M449.4,131.3v0.7h-11.3v-0.7h0.9c1.1,0,1.9-0.3,2.4-1c0.3-0.4,0.5-1.4,0.5-3v-17.1c0-1.3-0.1-2.2-0.3-2.7
			c-0.1-0.3-0.4-0.6-0.8-0.8c-0.6-0.3-1.2-0.5-1.8-0.5h-0.9v-0.7h11.3v0.7h-1c-1.1,0-1.9,0.3-2.4,1c-0.3,0.4-0.5,1.4-0.5,3v17.1
			c0,1.3,0.1,2.2,0.3,2.7c0.1,0.3,0.4,0.6,0.8,0.8c0.6,0.3,1.1,0.5,1.8,0.5H449.4z"/>
		<path class="st1" d="M479.1,104.9l0.6,9h-0.6c-0.8-2.7-2-4.6-3.4-5.8c-1.5-1.2-3.3-1.8-5.4-1.8c-1.7,0-3.3,0.4-4.7,1.3
			c-1.4,0.9-2.5,2.3-3.3,4.3c-0.8,2-1.2,4.4-1.2,7.3c0,2.4,0.4,4.5,1.1,6.2c0.8,1.8,1.9,3.1,3.4,4c1.5,0.9,3.3,1.4,5.3,1.4
			c1.7,0,3.2-0.4,4.5-1.1c1.3-0.7,2.7-2.2,4.3-4.4l0.6,0.4c-1.3,2.4-2.9,4.1-4.6,5.2c-1.8,1.1-3.9,1.6-6.3,1.6
			c-4.4,0-7.7-1.6-10.1-4.9c-1.8-2.4-2.7-5.3-2.7-8.6c0-2.6,0.6-5.1,1.8-7.3c1.2-2.2,2.8-3.9,4.9-5.1c2.1-1.2,4.3-1.8,6.8-1.8
			c1.9,0,3.8,0.5,5.6,1.4c0.5,0.3,0.9,0.4,1.2,0.4c0.3,0,0.7-0.1,0.9-0.4c0.3-0.4,0.6-0.8,0.7-1.5H479.1z"/>
		<path class="st1" d="M504.7,104.9v9.2H504c-0.2-1.8-0.7-3.2-1.3-4.2c-0.6-1-1.5-1.9-2.6-2.5c-1.1-0.6-2.3-0.9-3.5-0.9
			c-1.3,0-2.5,0.4-3.3,1.2c-0.9,0.8-1.3,1.8-1.3,2.8c0,0.8,0.3,1.5,0.8,2.2c0.8,1,2.7,2.3,5.7,3.9c2.5,1.3,4.1,2.3,5,3.1
			c0.9,0.7,1.6,1.5,2.1,2.5s0.7,2,0.7,3c0,2-0.8,3.7-2.3,5.2c-1.5,1.5-3.5,2.2-6,2.2c-0.8,0-1.5-0.1-2.2-0.2
			c-0.4-0.1-1.2-0.3-2.5-0.7s-2.1-0.6-2.4-0.6c-0.3,0-0.6,0.1-0.8,0.3c-0.2,0.2-0.3,0.6-0.4,1.2h-0.7v-9.1h0.7
			c0.3,1.9,0.8,3.3,1.4,4.3c0.6,0.9,1.4,1.7,2.6,2.4c1.2,0.6,2.5,0.9,3.9,0.9c1.6,0,2.9-0.4,3.8-1.3c0.9-0.9,1.4-1.9,1.4-3
			c0-0.7-0.2-1.3-0.5-2c-0.4-0.7-0.9-1.3-1.7-1.9c-0.5-0.4-1.9-1.2-4.1-2.5c-2.3-1.3-3.9-2.3-4.8-3s-1.7-1.6-2.2-2.5
			c-0.5-0.9-0.7-1.9-0.7-3c0-1.9,0.7-3.5,2.2-4.9c1.4-1.4,3.3-2.1,5.5-2.1c1.4,0,2.9,0.3,4.4,1c0.7,0.3,1.2,0.5,1.5,0.5
			c0.3,0,0.6-0.1,0.8-0.3c0.2-0.2,0.4-0.6,0.5-1.2H504.7z"/>
	</g>
	<g>
		<path class="st0" d="M472.3,7.6l0.1,2.9h-0.3c-0.1-0.5-0.2-0.9-0.3-1.1c-0.2-0.3-0.4-0.6-0.7-0.8c-0.3-0.2-0.7-0.2-1.2-0.2h-1.7
			v9.3c0,0.8,0.1,1.2,0.2,1.4c0.2,0.3,0.6,0.4,1.1,0.4h0.4v0.3h-5.2v-0.3h0.4c0.5,0,0.9-0.2,1.1-0.5c0.1-0.2,0.2-0.6,0.2-1.3V8.3
			H465c-0.6,0-1,0-1.2,0.1c-0.3,0.1-0.6,0.3-0.8,0.7c-0.2,0.3-0.4,0.8-0.4,1.3h-0.3l0.1-2.9H472.3z"/>
		<path class="st0" d="M482.7,19.8L478,9.5v8.2c0,0.8,0.1,1.2,0.2,1.4c0.2,0.3,0.6,0.4,1.1,0.4h0.4v0.3h-4.2v-0.3h0.4
			c0.5,0,0.9-0.2,1.1-0.5c0.1-0.2,0.2-0.6,0.2-1.3v-8c0-0.5-0.1-0.9-0.2-1.2c-0.1-0.2-0.2-0.3-0.5-0.4c-0.2-0.1-0.6-0.2-1.1-0.2V7.6
			h3.5l4.4,9.6l4.4-9.6h3.5v0.3h-0.4c-0.5,0-0.9,0.2-1.1,0.5c-0.1,0.2-0.2,0.6-0.2,1.3v8c0,0.8,0.1,1.2,0.3,1.4
			c0.2,0.3,0.6,0.4,1.1,0.4h0.4v0.3H486v-0.3h0.4c0.5,0,0.9-0.2,1.1-0.5c0.1-0.2,0.2-0.6,0.2-1.3V9.5L483,19.8H482.7z"/>
	</g>
</g>
</svg>
